<svg width="40" height="40" viewBox="0 0 40 40" fill="none" xmlns="http://www.w3.org/2000/svg">
<path d="M14.8724 7.22161L13.5025 7.80946C14.8706 7.22238 16.1657 6.53286 17.1136 5.78635C17.1783 5.73551 17.2479 5.69426 17.321 5.66279L18.6911 5.07495C18.618 5.10622 18.5483 5.14747 18.4837 5.19851C17.5357 5.9452 16.2407 6.63454 14.8726 7.22161" fill="#705BD7"/>
<path d="M22.3008 33.4116C22.098 33.4187 21.8879 33.3617 21.6967 33.2399L19.3359 31.738C13.4711 28.0061 9.55456 21.8828 8.78983 15.2514L8.21196 10.239C8.15326 9.72922 8.40017 9.28086 8.80403 9.10742L7.43418 9.69526C7.03033 9.86851 6.78341 10.3171 6.84212 10.8268L7.41999 15.8392C8.18453 22.4707 12.1011 28.5939 17.9659 32.3261L20.3266 33.8279C20.5179 33.9497 20.728 34.0067 20.9308 33.9996C21.0465 33.9956 21.1597 33.9706 21.2658 33.9252L22.6356 33.3373C22.5295 33.3828 22.4163 33.4077 22.3006 33.4118L22.3008 33.4116Z" fill="#4C41C3"/>
<path d="M19.0253 5.00057C19.2202 4.99386 19.4221 5.04623 19.6076 5.15904C22.4392 6.8773 27.4191 8.07063 29.8864 8.31659C30.4278 8.37069 30.8865 8.85225 30.9548 9.4445L31.5327 14.4569C32.2972 21.0884 29.8179 27.4349 24.8573 31.545L22.8609 33.199C22.6987 33.3331 22.5032 33.4043 22.3004 33.4114C22.0977 33.4185 21.8876 33.3615 21.6963 33.2397L19.3355 31.7378C13.4711 28.0061 9.55458 21.8828 8.78985 15.2514L8.21198 10.239C8.14368 9.64672 8.48825 9.13715 9.01221 9.04564C11.4039 8.62989 16.0692 7.09985 18.4835 5.19837C18.642 5.07367 18.8302 5.00748 19.0253 5.00057Z" fill="#A17FF2"/>
<path d="M17.4196 10.2893L16.8268 10.5436C17.8189 10.1179 18.7785 9.62936 19.5959 9.09317C19.6251 9.07408 19.6555 9.0578 19.687 9.04419L20.2798 8.78979C20.2484 8.80325 20.2179 8.81952 20.1887 8.83878C19.3715 9.37497 18.4117 9.86349 17.4196 10.2893Z" fill="#D1D3D4"/>
<path d="M22.8038 28.7772C22.6748 28.7817 22.5413 28.7454 22.4194 28.6677L21.3006 27.9564C19.0673 26.535 17.1438 24.6214 15.7371 22.4226C14.3451 20.2471 13.4587 17.7885 13.1733 15.313L12.8412 12.4325C12.8041 12.1107 12.9587 11.8239 13.2168 11.7131L12.624 11.9675C12.3659 12.0783 12.2112 12.3651 12.2483 12.6869L12.5805 15.5674C12.8659 18.0427 13.7521 20.5013 15.1443 22.677C16.5509 24.8758 18.4747 26.7894 20.7078 28.2108L21.8266 28.922C21.9483 28.9998 22.082 29.0361 22.211 29.0316C22.2843 29.0291 22.3562 29.0134 22.4232 28.9845L23.0161 28.7301C22.9488 28.759 22.8771 28.7748 22.8038 28.7772Z" fill="#A7A9AC"/>
<path d="M20.4937 8.74233C20.6018 8.73851 20.713 8.76325 20.8187 8.81688C23.0808 9.9678 26.1076 10.7823 28.3 11.1591C28.6258 11.215 28.8912 11.5129 28.9323 11.8699L29.2644 14.7505C29.5499 17.2258 29.2354 19.7264 28.3545 21.9812C27.4641 24.2603 25.9949 26.2925 24.106 27.8579L23.16 28.6413C23.057 28.727 22.9328 28.7723 22.8038 28.7768C22.6748 28.7813 22.5413 28.7449 22.4194 28.6672L21.3005 27.956C19.0673 26.5346 17.1437 24.621 15.7371 22.4221C14.3451 20.2466 13.4587 17.7881 13.1732 15.3125L12.8411 12.432C12.8 12.075 12.9949 11.761 13.3051 11.6828C15.3934 11.1566 18.2088 10.138 20.1885 8.83897C20.2808 8.77853 20.3856 8.74615 20.4937 8.74249V8.74233Z" fill="white"/>
<path d="M25.8878 13.42C26.1432 13.4111 26.4111 13.5097 26.6311 13.7179C27.0702 14.1337 27.1503 14.8302 26.8106 15.2739L22.2692 21.1886C22.107 21.4001 21.8637 21.5258 21.6008 21.5352C21.3379 21.5443 21.067 21.4365 20.8575 21.2381L17.3056 17.8746C16.8665 17.4582 16.7862 16.7615 17.1262 16.3187C17.2965 16.0972 17.5398 15.9809 17.7952 15.9719C18.0507 15.963 18.3184 16.0614 18.5379 16.2692L21.2946 18.8789L25.2193 13.7672C25.3892 13.5452 25.6323 13.4289 25.8878 13.42Z" fill="#5D60B0"/>
</svg>
